<svg width="274" height="268" viewBox="0 0 274 268" fill="none" xmlns="http://www.w3.org/2000/svg">
<path fill-rule="evenodd" clip-rule="evenodd" d="M-34.6921 243.101C3.24693 332.538 168.767 385.017 211.961 312.52C255.155 240.023 145.862 226.867 107.226 151.951C68.5909 77.0349 38.5692 30.2769 -17.2556 47.3443C-73.0804 64.4116 -72.6312 153.664 -34.6921 243.101Z" fill="#6259FF"/>
<path fill-rule="evenodd" clip-rule="evenodd" d="M233.095 301.153C293.774 272.875 325.934 157.627 274.97 129.625C224.005 101.622 217.573 177.204 166.911 205.612C116.249 234.02 84.771 255.819 97.867 293.853C110.963 331.887 172.416 329.431 233.095 301.153Z" fill="#F9818E"/>
<path d="M165.305 169.097L175.912 158.291" stroke="white" stroke-width="5" stroke-linecap="round" stroke-linejoin="bevel"/>
<path d="M209.461 174.581L196.955 164.078" stroke="white" stroke-width="5" stroke-linecap="round" stroke-linejoin="bevel"/>
<path d="M187.56 188.991L180.652 203.789" stroke="white" stroke-width="5" stroke-linecap="round" stroke-linejoin="bevel"/>
<path d="M0.304688 246.891C37.3078 246.891 67.3047 216.894 67.3047 179.891C67.3047 142.888 37.3078 112.891 0.304688 112.891C-36.6984 112.891 -66.6953 142.888 -66.6953 179.891C-66.6953 216.894 -36.6984 246.891 0.304688 246.891Z" fill="#FFAF7E"/>
</svg>
